<svg width="110px" height="27px" viewBox="0 0 110 27" xmlns="http://www.w3.org/2000/svg" fill="#1a1a1a"><g fill="#1a1a1a" fill-rule="nonzero"><path d="M 52.359375 23.15625 L 48.988281 23.15625 L 48.988281 15.519531 L 40.890625 15.519531 L 40.890625 23.15625 L 37.480469 23.15625 L 37.480469 4.328125 L 40.890625 4.328125 L 40.890625 12.046875 L 48.988281 12.046875 L 48.988281 4.277344 L 52.359375 4.277344 Z M 69.574219 7.503906 L 60.191406 7.503906 L 60.191406 12.011719 L 68.664062 12.011719 L 68.664062 15.402344 L 60.191406 15.402344 L 60.191406 19.890625 L 69.574219 19.890625 L 69.574219 23.109375 L 56.664062 23.109375 L 56.664062 4.277344 L 69.574219 4.277344 Z M 81.816406 19.015625 L 86.929688 4.300781 L 90.6875 4.300781 L 84.148438 23.019531 L 79.5 23.019531 L 72.933594 4.300781 L 76.664062 4.300781 Z M 101.457031 11.648438 L 105.441406 4.300781 L 109.4375 4.300781 L 103.175781 15.339844 L 103.175781 23.019531 L 99.765625 23.019531 L 99.765625 15.386719 L 93.476562 4.300781 L 97.472656 4.300781 Z M 101.457031 11.648438 "></path><path d="M 21.023438 22.453125 C 21.128906 22.558594 21.339844 22.648438 21.492188 22.648438 C 21.796875 22.648438 22.378906 22.511719 22.707031 22.453125 C 23.683594 22.28125 25.960938 21.824219 26.691406 21.207031 C 26.867188 21.054688 26.855469 20.972656 26.890625 20.75 C 27.0625 19.6875 27.035156 18.472656 27.058594 17.394531 C 27.136719 13.652344 27.109375 9.898438 26.839844 6.167969 C 26.8125 6.023438 26.3125 5.785156 26.171875 5.722656 C 25.375 5.359375 24.402344 5.125 23.546875 4.9375 C 22.980469 4.8125 22.160156 4.609375 21.597656 4.570312 C 21.195312 4.542969 20.894531 4.738281 20.851562 5.15625 C 20.757812 6.105469 20.902344 7.21875 20.851562 8.191406 C 20.777344 9.707031 20.109375 11.277344 19.121094 12.410156 C 17.773438 13.960938 15.636719 14.734375 13.949219 15.851562 C 13.261719 16.304688 12.703125 16.929688 12.378906 17.691406 C 11.378906 20.011719 13.03125 22.828125 10.734375 24.675781 C 9.550781 25.625 8.496094 25.511719 7.09375 25.269531 C 5.242188 24.945312 1.792969 24.25 0.707031 22.582031 C 0.121094 21.683594 0.179688 19.789062 0.128906 18.707031 C -0.0234375 15.253906 -0.0507812 11.75 0.101562 8.296875 C 0.144531 7.28125 0.128906 5.722656 0.578125 4.8125 C 1.574219 2.796875 5.039062 2.105469 7.0625 1.789062 C 8.316406 1.59375 9.257812 1.445312 10.390625 2.152344 C 12.730469 3.429688 12.023438 6.796875 12.023438 9.167969 C 12.023438 10.011719 11.089844 10.957031 10.378906 10.957031 C 9.640625 11.019531 9.1875 10.230469 9.140625 9.582031 C 9.035156 8.121094 9.222656 6.523438 9.140625 5.046875 C 8.996094 4.253906 8.203125 4.515625 7.636719 4.601562 C 6.496094 4.773438 4.285156 5.183594 3.386719 5.886719 C 3.144531 6.074219 3.144531 6.148438 3.101562 6.445312 C 2.984375 7.214844 2.992188 8.011719 2.960938 8.789062 C 2.875 11.113281 2.894531 13.457031 2.933594 15.78125 C 2.964844 17.523438 2.984375 19.261719 3.15625 20.996094 C 3.191406 21.121094 3.753906 21.394531 3.894531 21.457031 C 5.324219 22.085938 7.003906 22.304688 8.53125 22.597656 C 8.851562 22.566406 9.089844 22.363281 9.140625 22.035156 C 9.175781 20.273438 8.960938 18.59375 9.585938 16.910156 C 10.761719 13.738281 13.320312 13.03125 15.902344 11.394531 C 16.695312 10.890625 17.332031 10.207031 17.679688 9.324219 C 18.5625 7.046875 17.015625 4.414062 19.1875 2.535156 C 20.472656 1.425781 21.78125 1.667969 23.304688 1.957031 C 25.089844 2.292969 28.398438 2.988281 29.359375 4.679688 C 29.871094 5.570312 29.816406 7.492188 29.863281 8.546875 C 30.011719 11.980469 30.039062 15.460938 29.890625 18.898438 C 29.847656 19.875 29.867188 21.351562 29.460938 22.234375 C 28.574219 24.148438 25.464844 24.859375 23.578125 25.214844 C 22.144531 25.484375 20.855469 25.789062 19.546875 24.933594 C 18.601562 24.316406 18.023438 23.28125 17.964844 22.148438 C 17.886719 20.742188 17.992188 19.226562 18.003906 17.816406 C 18.191406 16.882812 19.320312 15.691406 20.277344 16.464844 C 20.597656 16.722656 20.824219 17.148438 20.851562 17.558594 C 20.953125 19.015625 20.773438 20.59375 20.851562 22.066406 C 20.863281 22.1875 20.9375 22.363281 21.023438 22.453125 Z M 21.023438 22.453125 "></path></g></svg>
